<svg width="95" height="22" viewBox="0 0 95 22" fill="none" xmlns="http://www.w3.org/2000/svg">
<path d="M28.365 18.091H26.339V4.109H35.269V6.049H28.365V9.901H33.285V11.842H28.365V18.091ZM42.271 18.333C39.765 18.333 38.512 16.84 38.512 13.853V7.876H40.496V13.711C40.496 14.662 40.692 15.352 41.083 15.78C41.483 16.217 42.01 16.436 42.662 16.436C44.218 16.436 44.996 15.542 44.996 13.754V7.876H46.967V18.091H44.996V17.092C44.363 17.92 43.454 18.333 42.271 18.333ZM55.324 7.647C57.784 7.647 59.013 9.112 59.013 12.042V18.091H57.057V12.17C57.057 10.401 56.33 9.516 54.877 9.516C53.321 9.516 52.543 10.391 52.543 12.142V18.091H50.586V7.876H52.403V9.117C52.655 8.679 53.041 8.323 53.563 8.047C54.085 7.78 54.672 7.647 55.324 7.647ZM66.518 18.333C65.167 18.333 64.105 17.858 63.331 16.907C62.558 15.965 62.172 14.652 62.172 12.969C62.172 11.323 62.563 10.025 63.346 9.074C64.137 8.123 65.181 7.647 66.476 7.647C67.566 7.647 68.428 7.966 69.061 8.603V4.609L71.018 3.667V18.091H69.062V17.263C68.475 17.977 67.627 18.333 66.518 18.333ZM66.769 16.45C67.822 16.45 68.586 16.046 69.061 15.237V10.672C68.577 9.901 67.804 9.516 66.741 9.516C65.912 9.516 65.269 9.816 64.813 10.415C64.366 11.005 64.142 11.856 64.142 12.969C64.142 13.996 64.38 14.833 64.855 15.48C65.321 16.127 65.959 16.45 66.769 16.45ZM81.416 7.647C82.347 7.647 83.107 7.818 83.694 8.161V11.813H81.779V9.559C81.686 9.55 81.546 9.545 81.36 9.545C80.353 9.545 79.538 9.797 78.914 10.301C78.281 10.805 77.964 11.528 77.964 12.47V16.307H80.815V18.091H73.869V16.307H75.965V9.645H73.869V7.876H77.824V9.559C78.132 8.969 78.621 8.503 79.291 8.161C79.971 7.818 80.68 7.647 81.416 7.647ZM90.248 18.333C89.168 18.333 88.287 18.034 87.607 17.435C86.927 16.845 86.587 16.003 86.587 14.909C86.587 13.806 86.969 12.969 87.733 12.398C88.497 11.828 89.419 11.542 90.5 11.542C91.487 11.542 92.354 11.742 93.099 12.141V11.442C93.099 10.063 92.424 9.373 91.073 9.373C90.039 9.373 88.972 9.73 87.872 10.444L87.286 8.803C88.478 8.032 89.797 7.647 91.241 7.647C93.747 7.647 95 8.888 95 11.371V18.091H93.099V17.206C92.345 17.958 91.394 18.333 90.248 18.333ZM90.556 16.564C91.525 16.564 92.373 16.165 93.099 15.366V13.839C92.41 13.44 91.641 13.24 90.793 13.24C90.132 13.24 89.578 13.383 89.13 13.668C88.683 13.953 88.46 14.367 88.46 14.909C88.46 15.413 88.646 15.818 89.018 16.122C89.391 16.417 89.904 16.564 90.556 16.564ZM8.536 0H0V4.573H8.536V8.714H0V13.286H8.536V17.427H0V22H21.55V17.427H13.014V13.286H21.55V8.714H13.014V4.573H21.55V0H13.014H8.536Z" fill="black"/>
</svg>
